<svg width="35" height="30" viewBox="0 0 35 30" fill="none" xmlns="http://www.w3.org/2000/svg">
<path fill-rule="evenodd" clip-rule="evenodd" d="M31.2158 0.961914C33.674 4.1157 35.0061 8.00141 34.9999 12.0001C34.9999 21.9397 26.9396 30 17.0004 30C10.0067 30 3.9435 26.0096 0.963806 20.1827H8.80903C12.5475 20.1827 15.1589 18.1676 15.1589 14.9465C15.1589 8.11991 7.28365 10.9011 7.28365 8.47852C7.28365 7.31129 8.22011 6.88668 9.9338 6.88668H15.3938C16.9072 6.88668 18.6873 7.15806 18.6873 8.80945V14.2496C18.6873 18.1888 21.7635 20.1822 24.9518 20.1822C28.1945 20.1822 31.2153 18.1888 31.2153 14.2496V0.961914H31.2158Z" fill="#00C78B"/>
</svg>
